<svg id="Capa_1" enable-background="new 0 0 497 497" height="512" viewBox="0 0 497 497" width="512" xmlns="http://www.w3.org/2000/svg"><g><path d="m482.152 294.848c0 14.492-11.737 60.43-26.218 60.43h-4.88s-19.783 0-52.721 0c-2.56 0-5.052-33.95-7.474-33.458v-53.19h65.075c7.234 0 13.795 2.937 18.537 7.68 4.744 4.744 7.681 11.304 7.681 18.538z" fill="#ffd064"/><path d="m451.047 304.059c0-31.974-25.92-57.894-57.894-57.894h-263.631c-25.817 0-46.747-20.929-46.747-46.747 0-25.817 20.929-46.747 46.747-46.747h263.631c31.974 0 57.894 25.92 57.894 57.894z" fill="#5766cb"/><path d="m451.047 342.966c0-31.974-25.92-57.894-57.894-57.894h-263.631c-25.817 0-46.747-20.929-46.747-46.747 0-25.817 20.929-46.747 46.747-46.747h263.631c31.974 0 57.894 25.92 57.894 57.894z" fill="#3d4fc3"/><g><circle cx="295.331" cy="114.972" fill="#ffd064" r="114.969"/><circle cx="295.331" cy="114.972" fill="#ffe07d" r="85.411"/><path d="m325.057 106.601c2.195-3.643 3.46-7.906 3.46-12.459 0-10.737-7.025-19.859-16.719-23.024v-12.703c0-4.142-3.357-7.5-7.5-7.5s-7.5 3.358-7.5 7.5v11.508h-7.02v-11.508c0-4.142-3.357-7.5-7.5-7.5s-7.5 3.358-7.5 7.5v11.508h-1.063-13.021c-4.143 0-7.5 3.358-7.5 7.5s3.357 7.5 7.5 7.5h5.521v60.196h-5.521c-4.143 0-7.5 3.358-7.5 7.5s3.357 7.5 7.5 7.5h13.021 1.063v11.508c0 4.142 3.357 7.5 7.5 7.5s7.5-3.358 7.5-7.5v-11.507h7.02v11.508c0 4.142 3.357 7.5 7.5 7.5s7.5-3.358 7.5-7.5v-11.508h.112c15.648 0 28.379-12.731 28.379-28.38 0-10.906-6.187-20.389-15.232-25.139zm-20.759-3.241h-23.083v-18.437h23.083c5.083 0 9.219 4.135 9.219 9.219s-4.136 9.218-9.219 9.218zm7.612 41.76h-30.695v-26.76h23.083 7.612c7.377 0 13.379 6.002 13.379 13.38 0 7.377-6.002 13.38-13.379 13.38z" fill="#ffc250"/></g><g><circle cx="232.647" cy="218.461" fill="#ffd064" r="114.969"/><circle cx="232.647" cy="218.461" fill="#ffe07d" r="85.411"/><path d="m262.293 209.889c2.195-3.643 3.46-7.906 3.46-12.459 0-10.737-7.025-19.859-16.719-23.024v-12.702c0-4.142-3.357-7.5-7.5-7.5s-7.5 3.358-7.5 7.5v11.508h-7.02v-11.508c0-4.142-3.357-7.5-7.5-7.5s-7.5 3.358-7.5 7.5v11.508h-1.063-13.021c-4.143 0-7.5 3.358-7.5 7.5s3.357 7.5 7.5 7.5h5.521v60.196h-5.521c-4.143 0-7.5 3.358-7.5 7.5s3.357 7.5 7.5 7.5h13.021 1.063v11.508c0 4.142 3.357 7.5 7.5 7.5s7.5-3.358 7.5-7.5v-11.508h7.02v11.508c0 4.142 3.357 7.5 7.5 7.5s7.5-3.358 7.5-7.5v-11.508h.112c15.648 0 28.379-12.731 28.379-28.38 0-10.906-6.187-20.389-15.232-25.139zm-20.759-3.241h-23.083v-18.437h23.083c5.083 0 9.219 4.135 9.219 9.219s-4.136 9.218-9.219 9.218zm7.612 41.759h-30.695v-26.759h23.083 7.612c7.377 0 13.379 6.002 13.379 13.38s-6.002 13.379-13.379 13.379z" fill="#ffc250"/></g><g><g fill="#ffe07d"><path d="m70.655 153.82-.231-2.282c-.813-8.05-7.721-14.095-15.807-13.834l-24.873.802c-8.909.287-15.712 8.06-14.816 16.929l.573 5.671c.896 8.869 9.116 15.124 17.903 13.623l24.531-4.19c7.975-1.365 13.533-8.669 12.72-16.719z"/><path d="m80.413 96.5.941-2.092c3.32-7.378.361-16.067-6.772-19.885l-21.942-11.742c-7.859-4.206-17.637-.876-21.295 7.253l-2.339 5.198c-3.658 8.129.333 17.656 8.693 20.749l23.34 8.636c7.587 2.808 16.054-.739 19.374-8.117z"/><path d="m115.845 50.359 1.861-1.341c6.565-4.729 8.346-13.734 4.077-20.607l-13.131-21.14c-4.703-7.572-14.836-9.577-22.069-4.367l-4.623 3.333c-7.233 5.21-8.539 15.457-2.846 22.316l15.895 19.149c5.166 6.225 14.272 7.386 20.836 2.657z"/></g></g><path d="m451.05 304.06v135.04c0 31.98-25.92 57.9-57.9 57.9h-263.63c-12.91 0-24.59-5.23-33.06-13.69-8.46-8.46-13.69-20.14-13.69-33.05v-250.84c0 25.81 20.93 46.74 46.75 46.74h263.63c31.98 0 57.9 25.92 57.9 57.9z" fill="#9dc6fb"/><path d="m196.538 497h-67.018c-12.914 0-24.595-5.234-33.058-13.696-8.462-8.453-13.696-20.134-13.696-33.048v-250.837c0 25.819 20.935 46.744 46.754 46.744h20.264v204.092c0 12.914 5.234 24.595 13.697 33.048 8.462 8.463 20.143 13.697 33.057 13.697z" fill="#80b5fc"/><path d="m482.151 294.843v104.517c0 14.48-11.749 26.229-26.229 26.229h-42.961c-14.434 0-27.486-5.852-36.949-15.303-9.451-9.463-15.303-22.526-15.303-36.961 0-28.858 23.395-52.252 52.252-52.252h38.092 4.88c14.48-.001 26.218-11.738 26.218-26.23z" fill="#ffe07d"/><circle cx="412.961" cy="373.331" fill="#5766cb" r="21.396"/><path d="m420.725 393.271c-2.41.95-5.03 1.46-7.77 1.46-11.81 0-21.39-9.58-21.39-21.4s9.58-21.39 21.39-21.39c2.74 0 5.36.51 7.77 1.46-7.98 3.09-13.64 10.85-13.64 19.93s5.66 16.84 13.64 19.94z" fill="#3d4fc3"/><g><path d="m182.83 423.61v73.39h-15v-70.28l-30.39-30.39c-2.93-2.93-2.93-7.68 0-10.61s7.68-2.93 10.61 0l32.58 32.59c1.41 1.4 2.2 3.31 2.2 5.3z" fill="#80b5fc"/><path d="m221.31 340.87v156.13h-15v-156.13c0-4.14 3.36-7.5 7.5-7.5s7.5 3.36 7.5 7.5z" fill="#80b5fc"/><circle cx="133.946" cy="382.227" fill="#5766cb" r="21.396"/><path d="m142.81 401.697c-2.7 1.23-5.7 1.92-8.86 1.92-11.82 0-21.4-9.58-21.4-21.39 0-11.82 9.58-21.4 21.4-21.4 3.16 0 6.16.69 8.86 1.92-7.39 3.37-12.52 10.82-12.52 19.48 0 8.65 5.13 16.1 12.52 19.47z" fill="#3d4fc3"/><circle cx="213.811" cy="327.724" fill="#5766cb" r="21.396"/><path d="m222.675 347.194c-2.7 1.23-5.7 1.92-8.86 1.92-11.82 0-21.4-9.58-21.4-21.39 0-11.82 9.58-21.4 21.4-21.4 3.16 0 6.16.69 8.86 1.92-7.39 3.37-12.52 10.82-12.52 19.48 0 8.65 5.13 16.1 12.52 19.47z" fill="#3d4fc3"/></g></g></svg>